<svg class="icon" viewBox="0 0 1024 1024" xmlns="http://www.w3.org/2000/svg" width="21" height="21"><defs><style><![CDATA[

]]></style></defs><path d="M555.213 521.882l226.713-224.41c10.036-9.933 10.138-26.163.205-36.198-9.932-10.087-26.162-10.138-36.197-.205L518.86 485.836 291.74 261.12c-9.984-9.933-26.266-9.882-36.2.205-9.932 10.035-9.83 26.214.206 36.198l226.662 224.41L236.442 765.39c-10.036 9.932-10.138 26.162-.205 36.197 5.017 5.07 11.622 7.578 18.176 7.578a25.512 25.512 0 0 0 18.022-7.424l246.323-243.865L765.082 801.74a25.512 25.512 0 0 0 18.022 7.425c6.605 0 13.21-2.56 18.176-7.578 9.933-10.035 9.83-26.265-.205-36.198L555.213 521.88zM768 25.6H256C128.973 25.6 25.6 128.973 25.6 256v512c0 127.027 103.373 230.4 230.4 230.4h512c127.027 0 230.4-103.373 230.4-230.4V256c0-127.027-103.373-230.4-230.4-230.4zM947.2 768c0 98.816-80.384 179.2-179.2 179.2H256c-98.816 0-179.2-80.384-179.2-179.2V256c0-98.816 80.384-179.2 179.2-179.2h512c98.816 0 179.2 80.384 179.2 179.2v512z" fill="#A3A3A3"/></svg>